<svg data-v-423bf9ae="" xmlns="http://www.w3.org/2000/svg" viewBox="0 0 294.7461429874272 60" class="font"><!----><!----><!----><g data-v-423bf9ae="" id="f992a25d-80de-46ca-a117-2011c027a6e3" fill="white" transform="matrix(4.415010987956055,0,0,4.415010987956055,0.1324511971737934,-12.450330452883719)"><path d="M8.29 2.82L8.46 3.00L8.46 3.00Q8.24 3.33 7.94 3.62L7.94 3.62L7.94 3.62Q7.64 3.90 7.29 4.12L7.29 4.12L7.29 4.12Q6.93 4.34 6.54 4.47L6.54 4.47L6.54 4.47Q6.14 4.59 5.74 4.59L5.74 4.59L4.40 4.61L4.40 4.61Q4.12 4.94 3.99 5.24L3.99 5.24L3.99 5.24Q3.86 5.55 3.86 5.97L3.86 5.97L3.86 7.88L4.06 7.88L4.06 7.88Q4.33 7.88 4.72 7.89L4.72 7.89L4.72 7.89Q5.11 7.90 5.51 7.88L5.51 7.88L5.51 7.88Q5.91 7.85 6.28 7.76L6.28 7.76L6.28 7.76Q6.64 7.66 6.86 7.46L6.86 7.46L7.03 7.66L7.03 7.66Q6.82 7.98 6.51 8.20L6.51 8.20L6.51 8.20Q6.21 8.42 5.86 8.56L5.86 8.56L5.86 8.56Q5.50 8.70 5.11 8.77L5.11 8.77L5.11 8.77Q4.71 8.83 4.31 8.84L4.31 8.84L3.86 8.84L3.86 11.44L3.86 11.44Q3.86 12.35 3.47 13.06L3.47 13.06L3.47 13.06Q3.08 13.77 2.34 14.28L2.34 14.28L2.10 14.01L2.10 14.01Q2.21 13.88 2.28 13.72L2.28 13.72L2.28 13.72Q2.35 13.56 2.39 13.38L2.39 13.38L2.39 13.38Q2.43 13.20 2.44 13.02L2.44 13.02L2.44 13.02Q2.45 12.84 2.45 12.67L2.45 12.67L2.45 8.84L1.12 8.84L1.85 7.88L2.45 7.88L2.45 6.76L2.45 6.76Q2.45 6.44 2.58 6.14L2.58 6.14L2.58 6.14Q2.71 5.83 2.92 5.56L2.92 5.56L2.92 5.56Q3.12 5.28 3.37 5.04L3.37 5.04L3.37 5.04Q3.62 4.81 3.85 4.61L3.85 4.61L3.85 4.61Q3.56 4.61 3.31 4.60L3.31 4.60L3.31 4.60Q3.05 4.60 2.79 4.60L2.79 4.60L2.79 4.60Q2.53 4.60 2.26 4.60L2.26 4.60L2.26 4.60Q1.98 4.59 1.65 4.59L1.65 4.59L1.65 4.59Q1.39 4.59 1.19 4.65L1.19 4.65L1.19 4.65Q0.99 4.70 0.82 4.79L0.82 4.79L0.82 4.79Q0.65 4.89 0.49 5.03L0.49 5.03L0.49 5.03Q0.33 5.17 0.17 5.37L0.17 5.37L-0.03 5.15L-0.03 5.15Q0.21 4.83 0.53 4.49L0.53 4.49L0.53 4.49Q0.85 4.16 1.22 3.88L1.22 3.88L1.22 3.88Q1.59 3.60 2.01 3.41L2.01 3.41L2.01 3.41Q2.42 3.23 2.84 3.23L2.84 3.23L5.49 3.23L5.49 3.23Q5.76 3.23 6.15 3.23L6.15 3.23L6.15 3.23Q6.54 3.22 6.94 3.18L6.94 3.18L6.94 3.18Q7.34 3.14 7.70 3.06L7.70 3.06L7.70 3.06Q8.07 2.97 8.29 2.82L8.29 2.82ZM12.84 12.01L13.02 12.22L13.02 12.22Q12.94 12.40 12.82 12.56L12.82 12.56L12.82 12.56Q12.69 12.71 12.53 12.84L12.53 12.84L12.53 12.84Q12.37 12.96 12.19 13.03L12.19 13.03L12.19 13.03Q12.00 13.10 11.79 13.10L11.79 13.10L11.79 13.10Q11.25 13.10 11.02 12.81L11.02 12.81L11.02 12.81Q10.78 12.51 10.78 12.00L10.78 12.00L10.78 11.87L10.78 11.87Q10.66 12.11 10.50 12.34L10.50 12.34L10.50 12.34Q10.35 12.57 10.15 12.76L10.15 12.76L10.15 12.76Q9.96 12.94 9.72 13.06L9.72 13.06L9.72 13.06Q9.48 13.17 9.19 13.17L9.19 13.17L9.19 13.17Q8.74 13.17 8.40 13.00L8.40 13.00L8.40 13.00Q8.06 12.83 7.83 12.54L7.83 12.54L7.83 12.54Q7.59 12.25 7.48 11.86L7.48 11.86L7.48 11.86Q7.36 11.47 7.36 11.03L7.36 11.03L7.36 11.03Q7.36 10.44 7.57 9.85L7.57 9.85L7.57 9.85Q7.78 9.26 8.16 8.79L8.16 8.79L8.16 8.79Q8.54 8.33 9.07 8.04L9.07 8.04L9.07 8.04Q9.60 7.75 10.25 7.75L10.25 7.75L10.25 7.75Q10.51 7.75 10.77 7.79L10.77 7.79L10.77 7.79Q11.03 7.84 11.26 7.95L11.26 7.95L11.26 7.95Q11.50 8.05 11.69 8.22L11.69 8.22L11.69 8.22Q11.89 8.39 12.01 8.64L12.01 8.64L10.99 9.07L10.99 9.07Q10.91 8.94 10.80 8.82L10.80 8.82L10.80 8.82Q10.70 8.70 10.57 8.61L10.57 8.61L10.57 8.61Q10.45 8.52 10.30 8.47L10.30 8.47L10.30 8.47Q10.16 8.42 10.00 8.42L10.00 8.42L10.00 8.42Q9.65 8.42 9.37 8.63L9.37 8.63L9.37 8.63Q9.09 8.85 8.90 9.17L8.90 9.17L8.90 9.17Q8.70 9.50 8.60 9.86L8.60 9.86L8.60 9.86Q8.50 10.22 8.50 10.51L8.50 10.51L8.50 10.51Q8.50 10.77 8.55 11.10L8.55 11.10L8.55 11.10Q8.60 11.42 8.73 11.71L8.73 11.71L8.73 11.71Q8.86 12.00 9.07 12.20L9.07 12.20L9.07 12.20Q9.28 12.39 9.60 12.39L9.60 12.39L9.60 12.39Q9.86 12.39 10.04 12.28L10.04 12.28L10.04 12.28Q10.23 12.17 10.36 11.99L10.36 11.99L10.36 11.99Q10.49 11.81 10.57 11.57L10.57 11.57L10.57 11.57Q10.66 11.33 10.70 11.09L10.70 11.09L10.70 11.09Q10.75 10.84 10.76 10.60L10.76 10.60L10.76 10.60Q10.78 10.36 10.78 10.17L10.78 10.17L10.78 9.69L12.02 9.26L12.02 12.03L12.02 12.03Q12.02 12.17 12.09 12.28L12.09 12.28L12.09 12.28Q12.16 12.39 12.30 12.39L12.30 12.39L12.30 12.39Q12.48 12.39 12.62 12.27L12.62 12.27L12.62 12.27Q12.76 12.14 12.84 12.01L12.84 12.01ZM16.80 11.15L16.80 11.15L16.80 11.15Q16.80 11.57 16.65 11.94L16.65 11.94L16.65 11.94Q16.49 12.31 16.22 12.58L16.22 12.58L16.22 12.58Q15.95 12.86 15.58 13.02L15.58 13.02L15.58 13.02Q15.20 13.17 14.77 13.17L14.77 13.17L14.77 13.17Q14.59 13.17 14.37 13.14L14.37 13.14L14.37 13.14Q14.16 13.10 13.95 13.04L13.95 13.04L13.95 13.04Q13.73 12.97 13.55 12.87L13.55 12.87L13.55 12.87Q13.36 12.76 13.23 12.62L13.23 12.62L14.04 11.57L14.04 11.57Q14.12 11.70 14.24 11.85L14.24 11.85L14.24 11.85Q14.36 12.00 14.51 12.13L14.51 12.13L14.51 12.13Q14.66 12.26 14.82 12.35L14.82 12.35L14.82 12.35Q14.99 12.43 15.16 12.43L15.16 12.43L15.16 12.43Q15.36 12.43 15.53 12.37L15.53 12.37L15.53 12.37Q15.71 12.30 15.84 12.17L15.84 12.17L15.84 12.17Q15.97 12.04 16.04 11.87L16.04 11.87L16.04 11.87Q16.12 11.70 16.12 11.50L16.12 11.50L16.12 11.50Q16.12 11.22 15.93 11.00L15.93 11.00L15.93 11.00Q15.74 10.77 15.49 10.55L15.49 10.55L15.49 10.55Q15.23 10.34 14.95 10.11L14.95 10.11L14.95 10.11Q14.68 9.88 14.51 9.60L14.51 9.60L13.79 10.64L13.53 10.45L14.35 9.31L14.35 9.31Q14.25 9.11 14.20 8.89L14.20 8.89L14.20 8.89Q14.14 8.67 14.14 8.46L14.14 8.46L14.14 8.46Q14.14 8.27 14.21 8.07L14.21 8.07L14.21 8.07Q14.27 7.86 14.38 7.69L14.38 7.69L14.38 7.69Q14.50 7.52 14.67 7.41L14.67 7.41L14.67 7.41Q14.83 7.29 15.05 7.29L15.05 7.29L15.05 7.29Q15.26 7.29 15.41 7.42L15.41 7.42L15.41 7.42Q15.56 7.55 15.56 7.79L15.56 7.79L15.56 7.79Q15.56 7.91 15.52 8.03L15.52 8.03L15.52 8.03Q15.48 8.16 15.42 8.28L15.42 8.28L15.42 8.28Q15.35 8.40 15.28 8.51L15.28 8.51L15.28 8.51Q15.20 8.63 15.13 8.72L15.13 8.72L15.13 8.72Q15.30 8.96 15.49 9.13L15.49 9.13L15.49 9.13Q15.68 9.30 15.87 9.45L15.87 9.45L15.87 9.45Q16.05 9.60 16.22 9.75L16.22 9.75L16.22 9.75Q16.39 9.90 16.52 10.09L16.52 10.09L16.52 10.09Q16.65 10.28 16.72 10.53L16.72 10.53L16.72 10.53Q16.80 10.79 16.80 11.15ZM15.25 7.91L15.25 7.91L15.25 7.91Q15.25 7.81 15.19 7.77L15.19 7.77L15.19 7.77Q15.12 7.72 15.04 7.72L15.04 7.72L15.04 7.72Q14.92 7.72 14.88 7.80L14.88 7.80L14.88 7.80Q14.83 7.88 14.83 7.97L14.83 7.97L14.83 7.97Q14.83 8.11 14.87 8.24L14.87 8.24L14.87 8.24Q14.92 8.37 14.98 8.48L14.98 8.48L14.98 8.48Q15.01 8.44 15.06 8.36L15.06 8.36L15.06 8.36Q15.10 8.29 15.15 8.20L15.15 8.20L15.15 8.20Q15.19 8.11 15.22 8.04L15.22 8.04L15.22 8.04Q15.25 7.96 15.25 7.91ZM22.93 12.03L23.11 12.24L23.11 12.24Q23.04 12.41 22.91 12.57L22.91 12.57L22.91 12.57Q22.78 12.73 22.62 12.85L22.62 12.85L22.62 12.85Q22.46 12.97 22.27 13.05L22.27 13.05L22.27 13.05Q22.09 13.12 21.88 13.12L21.88 13.12L21.88 13.12Q21.35 13.12 21.11 12.82L21.11 12.82L21.11 12.82Q20.86 12.52 20.86 12.01L20.86 12.01L20.86 9.23L20.86 9.23Q20.86 9.17 20.86 9.11L20.86 9.11L20.86 9.11Q20.85 9.04 20.83 8.99L20.83 8.99L20.83 8.99Q20.80 8.93 20.76 8.89L20.76 8.89L20.76 8.89Q20.72 8.85 20.65 8.85L20.65 8.85L20.65 8.85Q20.47 8.85 20.32 9.00L20.32 9.00L20.32 9.00Q20.16 9.15 20.03 9.40L20.03 9.40L20.03 9.40Q19.90 9.65 19.79 9.97L19.79 9.97L19.79 9.97Q19.67 10.29 19.58 10.64L19.58 10.64L19.58 10.64Q19.50 10.99 19.43 11.33L19.43 11.33L19.43 11.33Q19.37 11.68 19.32 11.99L19.32 11.99L19.32 11.99Q19.27 12.30 19.25 12.53L19.25 12.53L19.25 12.53Q19.22 12.76 19.22 12.88L19.22 12.88L17.96 13.32L17.96 3.67L19.22 3.23L19.22 10.63L19.22 10.63Q19.26 10.38 19.35 10.07L19.35 10.07L19.35 10.07Q19.44 9.75 19.57 9.42L19.57 9.42L19.57 9.42Q19.70 9.09 19.88 8.77L19.88 8.77L19.88 8.77Q20.05 8.45 20.27 8.20L20.27 8.20L20.27 8.20Q20.49 7.96 20.75 7.80L20.75 7.80L20.75 7.80Q21.01 7.65 21.32 7.65L21.32 7.65L21.32 7.65Q21.64 7.65 21.80 7.79L21.80 7.79L21.80 7.79Q21.96 7.93 22.04 8.15L22.04 8.15L22.04 8.15Q22.11 8.36 22.11 8.62L22.11 8.62L22.11 8.62Q22.12 8.88 22.12 9.12L22.12 9.12L22.12 12.04L22.12 12.04Q22.12 12.18 22.19 12.29L22.19 12.29L22.19 12.29Q22.25 12.41 22.40 12.41L22.40 12.41L22.40 12.41Q22.57 12.41 22.71 12.28L22.71 12.28L22.71 12.28Q22.85 12.15 22.93 12.03L22.93 12.03ZM23.88 4.61L25.33 4.12L24.96 6.61L24.29 6.82L23.88 4.61ZM26.09 12.03L26.27 12.24L26.27 12.24Q26.11 12.57 25.90 12.75L25.90 12.75L25.90 12.75Q25.70 12.93 25.50 13.01L25.50 13.01L25.50 13.01Q25.28 13.10 25.05 13.12L25.05 13.12L25.05 13.12Q24.75 13.12 24.55 13.02L24.55 13.02L24.55 13.02Q24.35 12.93 24.23 12.77L24.23 12.77L24.23 12.77Q24.12 12.61 24.07 12.41L24.07 12.41L24.07 12.41Q24.03 12.22 24.03 12.01L24.03 12.01L24.03 8.18L25.29 7.75L25.29 12.04L25.29 12.04Q25.29 12.21 25.36 12.30L25.36 12.30L25.36 12.30Q25.44 12.40 25.56 12.40L25.56 12.40L25.56 12.40Q25.68 12.41 25.82 12.32L25.82 12.32L25.82 12.32Q25.96 12.23 26.09 12.03L26.09 12.03ZM29.20 13.19L29.20 13.19L29.20 13.19Q28.69 13.19 28.25 13.01L28.25 13.01L28.25 13.01Q27.81 12.83 27.48 12.51L27.48 12.51L27.48 12.51Q27.16 12.19 26.97 11.75L26.97 11.75L26.97 11.75Q26.78 11.32 26.78 10.81L26.78 10.81L26.78 10.81Q26.78 10.23 26.97 9.72L26.97 9.72L26.97 9.72Q27.17 9.21 27.50 8.80L27.50 8.80L27.50 8.80Q27.84 8.39 28.30 8.09L28.30 8.09L28.30 8.09Q28.77 7.79 29.31 7.62L29.31 7.62L29.50 7.85L29.50 7.85Q29.20 8.08 28.93 8.37L28.93 8.37L28.93 8.37Q28.66 8.66 28.46 9.00L28.46 9.00L28.46 9.00Q28.27 9.34 28.15 9.71L28.15 9.71L28.15 9.71Q28.03 10.08 28.03 10.47L28.03 10.47L28.03 10.47Q28.03 10.80 28.13 11.16L28.13 11.16L28.13 11.16Q28.23 11.53 28.42 11.83L28.42 11.83L28.42 11.83Q28.61 12.13 28.90 12.32L28.90 12.32L28.90 12.32Q29.19 12.52 29.57 12.52L29.57 12.52L29.57 12.52Q29.91 12.52 30.16 12.39L30.16 12.39L30.16 12.39Q30.41 12.27 30.58 12.06L30.58 12.06L30.58 12.06Q30.74 11.85 30.82 11.56L30.82 11.56L30.82 11.56Q30.91 11.28 30.91 10.96L30.91 10.96L30.91 10.96Q30.91 10.60 30.76 10.21L30.76 10.21L30.76 10.21Q30.62 9.82 30.37 9.50L30.37 9.50L30.37 9.50Q30.12 9.17 29.78 8.95L29.78 8.95L29.78 8.95Q29.45 8.73 29.07 8.70L29.07 8.70L29.07 8.70Q29.31 8.42 29.59 8.19L29.59 8.19L29.59 8.19Q29.88 7.96 30.17 7.75L30.17 7.75L30.17 7.75Q30.57 7.88 30.87 8.13L30.87 8.13L30.87 8.13Q31.18 8.38 31.39 8.71L31.39 8.71L31.39 8.71Q31.60 9.04 31.71 9.42L31.71 9.42L31.71 9.42Q31.81 9.81 31.81 10.21L31.81 10.21L31.81 10.21Q31.81 10.75 31.63 11.28L31.63 11.28L31.63 11.28Q31.44 11.81 31.09 12.24L31.09 12.24L31.09 12.24Q30.75 12.67 30.27 12.93L30.27 12.93L30.27 12.93Q29.78 13.19 29.20 13.19ZM38.42 12.03L38.62 12.24L38.62 12.24Q38.53 12.41 38.40 12.57L38.40 12.57L38.40 12.57Q38.27 12.73 38.11 12.85L38.11 12.85L38.11 12.85Q37.95 12.97 37.77 13.05L37.77 13.05L37.77 13.05Q37.58 13.12 37.39 13.12L37.39 13.12L37.39 13.12Q36.85 13.12 36.60 12.82L36.60 12.82L36.60 12.82Q36.36 12.52 36.36 12.01L36.36 12.01L36.36 9.23L36.36 9.23Q36.36 9.18 36.36 9.12L36.36 9.12L36.36 9.12Q36.35 9.05 36.33 8.99L36.33 8.99L36.33 8.99Q36.31 8.93 36.28 8.89L36.28 8.89L36.28 8.89Q36.24 8.85 36.18 8.85L36.18 8.85L36.18 8.85Q35.99 8.85 35.80 9.08L35.80 9.08L35.80 9.08Q35.60 9.32 35.42 9.69L35.42 9.69L35.42 9.69Q35.24 10.06 35.09 10.51L35.09 10.51L35.09 10.51Q34.93 10.97 34.82 11.42L34.82 11.42L34.82 11.42Q34.70 11.87 34.63 12.26L34.63 12.26L34.63 12.26Q34.57 12.65 34.57 12.88L34.57 12.88L33.33 13.32L33.33 8.72L33.33 8.72Q33.33 8.59 33.26 8.47L33.26 8.47L33.26 8.47Q33.19 8.36 33.04 8.36L33.04 8.36L33.04 8.36Q32.87 8.36 32.73 8.49L32.73 8.49L32.73 8.49Q32.59 8.61 32.51 8.74L32.51 8.74L32.33 8.53L32.33 8.53Q32.41 8.36 32.54 8.20L32.54 8.20L32.54 8.20Q32.66 8.04 32.82 7.92L32.82 7.92L32.82 7.92Q32.98 7.79 33.17 7.72L33.17 7.72L33.17 7.72Q33.36 7.65 33.56 7.65L33.56 7.65L33.56 7.65Q34.10 7.65 34.33 7.95L34.33 7.95L34.33 7.95Q34.57 8.24 34.57 8.75L34.57 8.75L34.57 10.98L34.57 10.98Q34.63 10.70 34.74 10.34L34.74 10.34L34.74 10.34Q34.84 9.98 34.99 9.61L34.99 9.61L34.99 9.61Q35.14 9.24 35.33 8.89L35.33 8.89L35.33 8.89Q35.52 8.54 35.75 8.26L35.75 8.26L35.75 8.26Q35.97 7.98 36.24 7.82L36.24 7.82L36.24 7.82Q36.50 7.65 36.81 7.65L36.81 7.65L36.81 7.65Q37.13 7.65 37.30 7.79L37.30 7.79L37.30 7.79Q37.46 7.93 37.53 8.15L37.53 8.15L37.53 8.15Q37.60 8.36 37.61 8.62L37.61 8.62L37.61 8.62Q37.62 8.88 37.62 9.12L37.62 9.12L37.62 12.04L37.62 12.04Q37.62 12.18 37.69 12.29L37.69 12.29L37.69 12.29Q37.75 12.41 37.90 12.41L37.90 12.41L37.90 12.41Q38.06 12.41 38.20 12.28L38.20 12.28L38.20 12.28Q38.34 12.15 38.42 12.03L38.42 12.03ZM48.93 4.61L48.93 4.61L47.78 6.00L47.78 6.00Q47.63 5.54 47.39 5.13L47.39 5.13L47.39 5.13Q47.15 4.72 46.83 4.42L46.83 4.42L46.83 4.42Q46.50 4.11 46.08 3.92L46.08 3.92L46.08 3.92Q45.66 3.74 45.15 3.74L45.15 3.74L45.15 3.74Q44.78 3.74 44.47 3.87L44.47 3.87L44.47 3.87Q44.15 4.01 43.92 4.24L43.92 4.24L43.92 4.24Q43.68 4.48 43.55 4.80L43.55 4.80L43.55 4.80Q43.42 5.12 43.42 5.49L43.42 5.49L43.42 5.49Q43.42 5.87 43.56 6.21L43.56 6.21L43.56 6.21Q43.70 6.54 43.94 6.81L43.94 6.81L43.94 6.81Q44.18 7.08 44.49 7.28L44.49 7.28L44.49 7.28Q44.80 7.48 45.14 7.59L45.14 7.59L45.14 7.59Q45.47 7.70 45.84 7.85L45.84 7.85L45.84 7.85Q46.21 7.99 46.57 8.18L46.57 8.18L46.57 8.18Q46.92 8.37 47.24 8.61L47.24 8.61L47.24 8.61Q47.56 8.85 47.81 9.14L47.81 9.14L47.81 9.14Q48.06 9.43 48.20 9.79L48.20 9.79L48.20 9.79Q48.34 10.15 48.34 10.58L48.34 10.58L48.34 10.58Q48.34 11.19 48.07 11.68L48.07 11.68L48.07 11.68Q47.80 12.17 47.37 12.50L47.37 12.50L47.37 12.50Q46.93 12.84 46.36 13.02L46.36 13.02L46.36 13.02Q45.80 13.19 45.22 13.19L45.22 13.19L45.22 13.19Q44.82 13.19 44.42 13.08L44.42 13.08L44.42 13.08Q44.01 12.96 43.64 12.76L43.64 12.76L43.64 12.76Q43.26 12.56 42.94 12.29L42.94 12.29L42.94 12.29Q42.62 12.02 42.38 11.72L42.38 11.72L43.48 10.45L43.48 10.45Q43.59 10.77 43.84 11.14L43.84 11.14L43.84 11.14Q44.10 11.51 44.44 11.83L44.44 11.83L44.44 11.83Q44.78 12.14 45.18 12.35L45.18 12.35L45.18 12.35Q45.57 12.56 45.94 12.56L45.94 12.56L45.94 12.56Q46.15 12.56 46.38 12.45L46.38 12.45L46.38 12.45Q46.60 12.34 46.79 12.16L46.79 12.16L46.79 12.16Q46.98 11.99 47.10 11.79L47.10 11.79L47.10 11.79Q47.22 11.58 47.22 11.38L47.22 11.38L47.22 11.38Q47.22 11.08 47.10 10.81L47.10 10.81L47.10 10.81Q46.98 10.54 46.77 10.30L46.77 10.30L46.77 10.30Q46.57 10.06 46.31 9.86L46.31 9.86L46.31 9.86Q46.05 9.66 45.76 9.50L45.76 9.50L45.76 9.50Q45.48 9.34 45.20 9.22L45.20 9.22L45.20 9.22Q44.91 9.10 44.67 9.03L44.67 9.03L44.67 9.03Q44.20 8.89 43.75 8.62L43.75 8.62L43.75 8.62Q43.31 8.35 42.96 7.98L42.96 7.98L42.96 7.98Q42.61 7.60 42.40 7.13L42.40 7.13L42.40 7.13Q42.18 6.67 42.18 6.13L42.18 6.13L42.18 6.13Q42.18 5.67 42.33 5.26L42.33 5.26L42.33 5.26Q42.47 4.85 42.72 4.50L42.72 4.50L42.72 4.50Q42.98 4.16 43.32 3.87L43.32 3.87L43.32 3.87Q43.66 3.59 44.06 3.39L44.06 3.39L44.06 3.39Q44.45 3.20 44.88 3.09L44.88 3.09L44.88 3.09Q45.32 2.99 45.75 2.99L45.75 2.99L45.75 2.99Q46.71 2.99 47.53 3.41L47.53 3.41L47.53 3.41Q48.35 3.84 48.93 4.61ZM54.82 12.03L55.00 12.24L55.00 12.24Q54.93 12.41 54.80 12.57L54.80 12.57L54.80 12.57Q54.67 12.73 54.51 12.85L54.51 12.85L54.51 12.85Q54.35 12.97 54.16 13.05L54.16 13.05L54.16 13.05Q53.98 13.12 53.77 13.12L53.77 13.12L53.77 13.12Q53.24 13.12 53.00 12.82L53.00 12.82L53.00 12.82Q52.75 12.52 52.75 12.01L52.75 12.01L52.75 9.23L52.75 9.23Q52.75 9.17 52.75 9.11L52.75 9.11L52.75 9.11Q52.74 9.04 52.72 8.99L52.72 8.99L52.72 8.99Q52.69 8.93 52.65 8.89L52.65 8.89L52.65 8.89Q52.61 8.85 52.54 8.85L52.54 8.85L52.54 8.85Q52.36 8.85 52.21 9.00L52.21 9.00L52.21 9.00Q52.05 9.15 51.92 9.40L51.92 9.40L51.92 9.40Q51.79 9.65 51.68 9.97L51.68 9.97L51.68 9.97Q51.56 10.29 51.47 10.64L51.47 10.64L51.47 10.64Q51.39 10.99 51.32 11.33L51.32 11.33L51.32 11.33Q51.26 11.68 51.21 11.99L51.21 11.99L51.21 11.99Q51.16 12.30 51.14 12.53L51.14 12.53L51.14 12.53Q51.11 12.76 51.11 12.88L51.11 12.88L49.85 13.32L49.85 3.67L51.11 3.23L51.11 10.63L51.11 10.63Q51.15 10.38 51.24 10.07L51.24 10.07L51.24 10.07Q51.33 9.75 51.46 9.42L51.46 9.42L51.46 9.42Q51.59 9.09 51.77 8.77L51.77 8.77L51.77 8.77Q51.94 8.45 52.16 8.20L52.16 8.20L52.16 8.20Q52.38 7.96 52.64 7.80L52.64 7.80L52.64 7.80Q52.90 7.65 53.21 7.65L53.21 7.65L53.21 7.65Q53.53 7.65 53.69 7.79L53.69 7.79L53.69 7.79Q53.85 7.93 53.93 8.15L53.93 8.15L53.93 8.15Q54.00 8.36 54.00 8.62L54.00 8.62L54.00 8.62Q54.01 8.88 54.01 9.12L54.01 9.12L54.01 12.04L54.01 12.04Q54.01 12.18 54.08 12.29L54.08 12.29L54.08 12.29Q54.14 12.41 54.29 12.41L54.29 12.41L54.29 12.41Q54.46 12.41 54.60 12.28L54.60 12.28L54.60 12.28Q54.74 12.15 54.82 12.03L54.82 12.03ZM57.91 13.19L57.91 13.19L57.91 13.19Q57.40 13.19 56.96 13.01L56.96 13.01L56.96 13.01Q56.52 12.83 56.19 12.51L56.19 12.51L56.19 12.51Q55.87 12.19 55.68 11.75L55.68 11.75L55.68 11.75Q55.49 11.32 55.49 10.81L55.49 10.81L55.49 10.81Q55.49 10.23 55.69 9.72L55.69 9.72L55.69 9.72Q55.88 9.21 56.22 8.80L56.22 8.80L56.22 8.80Q56.55 8.39 57.02 8.09L57.02 8.09L57.02 8.09Q57.48 7.79 58.02 7.62L58.02 7.62L58.21 7.85L58.21 7.85Q57.91 8.08 57.64 8.37L57.64 8.37L57.64 8.37Q57.37 8.66 57.18 9.00L57.18 9.00L57.18 9.00Q56.98 9.34 56.86 9.71L56.86 9.71L56.86 9.71Q56.75 10.08 56.75 10.47L56.75 10.47L56.75 10.47Q56.75 10.80 56.84 11.16L56.84 11.16L56.84 11.16Q56.94 11.53 57.13 11.83L57.13 11.83L57.13 11.83Q57.32 12.13 57.61 12.32L57.61 12.32L57.61 12.32Q57.90 12.52 58.28 12.52L58.28 12.52L58.28 12.52Q58.63 12.52 58.87 12.39L58.87 12.39L58.87 12.39Q59.12 12.27 59.29 12.06L59.29 12.06L59.29 12.06Q59.45 11.85 59.53 11.56L59.53 11.56L59.53 11.56Q59.62 11.28 59.62 10.96L59.62 10.96L59.62 10.96Q59.62 10.60 59.47 10.21L59.47 10.21L59.47 10.21Q59.33 9.82 59.08 9.50L59.08 9.50L59.08 9.50Q58.83 9.17 58.50 8.95L58.50 8.95L58.50 8.95Q58.16 8.73 57.78 8.70L57.78 8.70L57.78 8.70Q58.02 8.42 58.30 8.19L58.30 8.19L58.30 8.19Q58.59 7.96 58.88 7.75L58.88 7.75L58.88 7.75Q59.28 7.88 59.59 8.13L59.59 8.13L59.59 8.13Q59.89 8.38 60.10 8.71L60.10 8.71L60.10 8.71Q60.31 9.04 60.42 9.42L60.42 9.42L60.42 9.42Q60.53 9.81 60.53 10.21L60.53 10.21L60.53 10.21Q60.53 10.75 60.34 11.28L60.34 11.28L60.34 11.28Q60.15 11.81 59.80 12.24L59.80 12.24L59.80 12.24Q59.46 12.67 58.98 12.93L58.98 12.93L58.98 12.93Q58.50 13.19 57.91 13.19ZM64.29 13.16L64.29 13.16L64.29 13.16Q64.05 13.16 63.83 13.09L63.83 13.09L63.83 13.09Q63.61 13.03 63.42 12.88L63.42 12.88L63.95 12.11L63.95 12.11Q64.08 12.29 64.25 12.39L64.25 12.39L64.25 12.39Q64.43 12.49 64.64 12.49L64.64 12.49L64.64 12.49Q64.86 12.49 65.02 12.38L65.02 12.38L65.02 12.38Q65.17 12.26 65.28 12.08L65.28 12.08L65.28 12.08Q65.39 11.89 65.45 11.67L65.45 11.67L65.45 11.67Q65.52 11.44 65.56 11.20L65.56 11.20L65.56 11.20Q65.59 10.97 65.60 10.76L65.60 10.76L65.60 10.76Q65.62 10.54 65.62 10.39L65.62 10.39L65.62 10.39Q65.62 10.10 65.54 9.77L65.54 9.77L65.54 9.77Q65.46 9.43 65.30 9.14L65.30 9.14L65.30 9.14Q65.14 8.85 64.89 8.65L64.89 8.65L64.89 8.65Q64.63 8.46 64.29 8.46L64.29 8.46L64.29 8.46Q64.05 8.46 63.88 8.58L63.88 8.58L63.88 8.58Q63.71 8.70 63.60 8.89L63.60 8.89L63.60 8.89Q63.49 9.08 63.42 9.33L63.42 9.33L63.42 9.33Q63.36 9.58 63.32 9.83L63.32 9.83L63.32 9.83Q63.29 10.08 63.29 10.32L63.29 10.32L63.29 10.32Q63.28 10.55 63.28 10.73L63.28 10.73L63.28 15.98L62.04 16.41L62.04 8.74L62.04 8.74Q62.04 8.60 61.97 8.49L61.97 8.49L61.97 8.49Q61.90 8.37 61.76 8.37L61.76 8.37L61.76 8.37Q61.58 8.37 61.44 8.50L61.44 8.50L61.44 8.50Q61.30 8.63 61.22 8.75L61.22 8.75L61.04 8.54L61.04 8.54Q61.12 8.37 61.25 8.21L61.25 8.21L61.25 8.21Q61.37 8.05 61.53 7.93L61.53 7.93L61.53 7.93Q61.69 7.81 61.88 7.73L61.88 7.73L61.88 7.73Q62.07 7.66 62.28 7.66L62.28 7.66L62.28 7.66Q62.57 7.66 62.76 7.75L62.76 7.75L62.76 7.75Q62.95 7.83 63.07 7.99L63.07 7.99L63.07 7.99Q63.18 8.15 63.23 8.37L63.23 8.37L63.23 8.37Q63.28 8.59 63.28 8.85L63.28 8.85L63.28 8.85Q63.39 8.64 63.54 8.43L63.54 8.43L63.54 8.43Q63.68 8.21 63.87 8.04L63.87 8.04L63.87 8.04Q64.05 7.88 64.27 7.77L64.27 7.77L64.27 7.77Q64.50 7.66 64.76 7.66L64.76 7.66L64.76 7.66Q65.24 7.66 65.60 7.87L65.60 7.87L65.60 7.87Q65.97 8.08 66.22 8.42L66.22 8.42L66.22 8.42Q66.47 8.76 66.60 9.18L66.60 9.18L66.60 9.18Q66.73 9.60 66.73 10.04L66.73 10.04L66.73 10.04Q66.73 10.58 66.57 11.14L66.57 11.14L66.57 11.14Q66.42 11.69 66.11 12.14L66.11 12.14L66.11 12.14Q65.81 12.59 65.35 12.88L65.35 12.88L65.35 12.88Q64.89 13.16 64.29 13.16Z"></path></g><!----><!----></svg>